<?xml version="1.0" encoding="utf-8"?>
<!-- Generated by Mocodo 4.3.3 -->
<svg width="307" height="468" viewBox="0 0 307 468" xmlns="http://www.w3.org/2000/svg">
<rect x="0" y="0" width="307" height="468" fill="#f7f7f7" stroke="none" stroke-width="0"/>

<!-- Association APPARTENIR -->
<g>
	<line x1="56" y1="44" x2="56" y2="130" stroke="#9970ab" stroke-width="1"/>
	<line x1="162" y1="234" x2="56" y2="130" stroke="#9970ab" stroke-width="1"/>
	<g>
		<path d="M89 104 a14 14 90 0 1 14 14 V130 h-94 V118 a14 14 90 0 1 14 -14" fill="#c2a5cf" stroke="#c2a5cf" stroke-width="0"/>
		<path d="M103 130 v12 a14 14 90 0 1 -14 14 H23 a14 14 90 0 1 -14 -14 V130 H94" fill="#e7d4e8" stroke="#e7d4e8" stroke-width="0"/>
		<rect x="9" y="104" width="94" height="52" fill="none" rx="14" stroke="#9970ab" stroke-width="1.5"/>
		<line x1="9" y1="130" x2="103" y2="130" stroke="#9970ab" stroke-width="1"/>
		<text x="16" y="122.6" fill="#000000" font-family="Trebuchet MS" font-size="14">APPARTENIR</text>
	</g>
	<text x="61" y="96" fill="#1b7837" font-family="Verdana" font-size="12">1,N</text>
	<text x="92" y="201.84" fill="#1b7837" font-family="Verdana" font-size="12">1,N</text>
</g>

<!-- Association VENIR -->
<g>
	<line x1="162" y1="44" x2="162" y2="130" stroke="#9970ab" stroke-width="1"/>
	<line x1="162" y1="234" x2="162" y2="130" stroke="#9970ab" stroke-width="1"/>
	<g>
		<path d="M175 104 a14 14 90 0 1 14 14 V130 h-54 V118 a14 14 90 0 1 14 -14" fill="#c2a5cf" stroke="#c2a5cf" stroke-width="0"/>
		<path d="M189 130 v12 a14 14 90 0 1 -14 14 H149 a14 14 90 0 1 -14 -14 V130 H54" fill="#e7d4e8" stroke="#e7d4e8" stroke-width="0"/>
		<rect x="135" y="104" width="54" height="52" fill="none" rx="14" stroke="#9970ab" stroke-width="1.5"/>
		<line x1="135" y1="130" x2="189" y2="130" stroke="#9970ab" stroke-width="1"/>
		<text x="143" y="122.6" fill="#000000" font-family="Trebuchet MS" font-size="14">VENIR</text>
	</g>
	<text x="167" y="96" fill="#1b7837" font-family="Verdana" font-size="12">1,N</text>
	<text x="167" y="173" fill="#1b7837" font-family="Verdana" font-size="12">1,N</text>
</g>

<!-- Association JOUER -->
<g>
	<line x1="267" y1="44" x2="267" y2="130" stroke="#9970ab" stroke-width="1"/>
	<line x1="162" y1="234" x2="267" y2="130" stroke="#9970ab" stroke-width="1"/>
	<g>
		<path d="M282 104 a14 14 90 0 1 14 14 V130 h-58 V118 a14 14 90 0 1 14 -14" fill="#c2a5cf" stroke="#c2a5cf" stroke-width="0"/>
		<path d="M296 130 v12 a14 14 90 0 1 -14 14 H252 a14 14 90 0 1 -14 -14 V130 H58" fill="#e7d4e8" stroke="#e7d4e8" stroke-width="0"/>
		<rect x="238" y="104" width="58" height="52" fill="none" rx="14" stroke="#9970ab" stroke-width="1.5"/>
		<line x1="238" y1="130" x2="296" y2="130" stroke="#9970ab" stroke-width="1"/>
		<text x="246" y="122.6" fill="#000000" font-family="Trebuchet MS" font-size="14">JOUER</text>
	</g>
	<text x="272" y="96" fill="#1b7837" font-family="Verdana" font-size="12">1,N</text>
	<text x="210" y="201.39" fill="#1b7837" font-family="Verdana" font-size="12">1,N</text>
</g>

<!-- Association ETRE -->
<g>
	<line x1="56" y1="424" x2="56" y2="338" stroke="#9970ab" stroke-width="1"/>
	<line x1="162" y1="234" x2="56" y2="338" stroke="#9970ab" stroke-width="1"/>
	<g>
		<path d="M66 312 a14 14 90 0 1 14 14 V338 h-48 V326 a14 14 90 0 1 14 -14" fill="#c2a5cf" stroke="#c2a5cf" stroke-width="0"/>
		<path d="M80 338 v12 a14 14 90 0 1 -14 14 H46 a14 14 90 0 1 -14 -14 V338 H48" fill="#e7d4e8" stroke="#e7d4e8" stroke-width="0"/>
		<rect x="32" y="312" width="48" height="52" fill="none" rx="14" stroke="#9970ab" stroke-width="1.5"/>
		<line x1="32" y1="338" x2="80" y2="338" stroke="#9970ab" stroke-width="1"/>
		<text x="40" y="330.6" fill="#000000" font-family="Trebuchet MS" font-size="14">ETRE</text>
	</g>
	<text x="61" y="381" fill="#1b7837" font-family="Verdana" font-size="12">1,N</text>
	<text x="93" y="275.16" fill="#1b7837" font-family="Verdana" font-size="12">1,1</text>
</g>

<!-- Association UTILISER -->
<g>
	<line x1="162" y1="424" x2="162" y2="338" stroke="#9970ab" stroke-width="1"/>
	<line x1="162" y1="234" x2="162" y2="338" stroke="#9970ab" stroke-width="1"/>
	<g>
		<path d="M184 312 a14 14 90 0 1 14 14 V338 h-72 V326 a14 14 90 0 1 14 -14" fill="#c2a5cf" stroke="#c2a5cf" stroke-width="0"/>
		<path d="M198 338 v12 a14 14 90 0 1 -14 14 H140 a14 14 90 0 1 -14 -14 V338 H72" fill="#e7d4e8" stroke="#e7d4e8" stroke-width="0"/>
		<rect x="126" y="312" width="72" height="52" fill="none" rx="14" stroke="#9970ab" stroke-width="1.5"/>
		<line x1="126" y1="338" x2="198" y2="338" stroke="#9970ab" stroke-width="1"/>
		<text x="134" y="330.6" fill="#000000" font-family="Trebuchet MS" font-size="14">UTILISER</text>
	</g>
	<text x="167" y="381" fill="#1b7837" font-family="Verdana" font-size="12">1,N</text>
	<text x="167" y="304" fill="#1b7837" font-family="Verdana" font-size="12">1,1</text>
</g>

<!-- Association AVOIR -->
<g>
	<line x1="267" y1="424" x2="267" y2="338" stroke="#9970ab" stroke-width="1"/>
	<line x1="162" y1="234" x2="267" y2="338" stroke="#9970ab" stroke-width="1"/>
	<g>
		<path d="M280 312 a14 14 90 0 1 14 14 V338 h-54 V326 a14 14 90 0 1 14 -14" fill="#c2a5cf" stroke="#c2a5cf" stroke-width="0"/>
		<path d="M294 338 v12 a14 14 90 0 1 -14 14 H254 a14 14 90 0 1 -14 -14 V338 H54" fill="#e7d4e8" stroke="#e7d4e8" stroke-width="0"/>
		<rect x="240" y="312" width="54" height="52" fill="none" rx="14" stroke="#9970ab" stroke-width="1.5"/>
		<line x1="240" y1="338" x2="294" y2="338" stroke="#9970ab" stroke-width="1"/>
		<text x="247" y="330.6" fill="#000000" font-family="Trebuchet MS" font-size="14">AVOIR</text>
	</g>
	<text x="272" y="381" fill="#1b7837" font-family="Verdana" font-size="12">1,N</text>
	<text x="210" y="275.61" fill="#1b7837" font-family="Verdana" font-size="12">1,N</text>
</g>

<!-- Entity ESPECES -->
<g>
	<g>
		<rect x="24" y="9" width="64" height="26" fill="#a6dba0" stroke="none" stroke-width="0" opacity="1"/>
		<rect x="24" y="35" width="64" height="44" fill="#d9f0d3" stroke="none" stroke-width="0" opacity="1"/>
		<rect x="24" y="9" width="64" height="70" fill="none" stroke="#5aae61" stroke-width="1.5" opacity="1"/>
		<line x1="24" y1="35" x2="88" y2="35" stroke="#5aae61" stroke-width="1"/>
	</g>
	<text x="29" y="27.6" fill="#000000" font-family="Trebuchet MS" font-size="14">ESPECES</text>
	<text x="29" y="53.6" fill="#000000" font-family="Trebuchet MS" font-size="14">id</text>
	<line x1="29" y1="56" x2="42" y2="56" stroke="#000000" stroke-width="1"/>
	<text x="29" y="71.6" fill="#000000" font-family="Trebuchet MS" font-size="14">libelle</text>
</g>

<!-- Entity REGIONS -->
<g>
	<g>
		<rect x="129" y="9" width="66" height="26" fill="#a6dba0" stroke="none" stroke-width="0" opacity="1"/>
		<rect x="129" y="35" width="66" height="44" fill="#d9f0d3" stroke="none" stroke-width="0" opacity="1"/>
		<rect x="129" y="9" width="66" height="70" fill="none" stroke="#5aae61" stroke-width="1.5" opacity="1"/>
		<line x1="129" y1="35" x2="195" y2="35" stroke="#5aae61" stroke-width="1"/>
	</g>
	<text x="134" y="27.6" fill="#000000" font-family="Trebuchet MS" font-size="14">REGIONS</text>
	<text x="134" y="53.6" fill="#000000" font-family="Trebuchet MS" font-size="14">id</text>
	<line x1="134" y1="56" x2="147" y2="56" stroke="#000000" stroke-width="1"/>
	<text x="134" y="71.6" fill="#000000" font-family="Trebuchet MS" font-size="14">nom</text>
</g>

<!-- Entity ROLES -->
<g>
	<g>
		<rect x="241" y="9" width="52" height="26" fill="#a6dba0" stroke="none" stroke-width="0" opacity="1"/>
		<rect x="241" y="35" width="52" height="44" fill="#d9f0d3" stroke="none" stroke-width="0" opacity="1"/>
		<rect x="241" y="9" width="52" height="70" fill="none" stroke="#5aae61" stroke-width="1.5" opacity="1"/>
		<line x1="241" y1="35" x2="293" y2="35" stroke="#5aae61" stroke-width="1"/>
	</g>
	<text x="247" y="27.6" fill="#000000" font-family="Trebuchet MS" font-size="14">ROLES</text>
	<text x="246" y="53.6" fill="#000000" font-family="Trebuchet MS" font-size="14">id</text>
	<line x1="246" y1="56" x2="259" y2="56" stroke="#000000" stroke-width="1"/>
	<text x="246" y="71.6" fill="#000000" font-family="Trebuchet MS" font-size="14">libelle</text>
</g>

<!-- Entity CHAMPIONS -->
<g>
	<g>
		<rect x="119" y="181" width="86" height="26" fill="#a6dba0" stroke="none" stroke-width="0" opacity="1"/>
		<rect x="119" y="207" width="86" height="80" fill="#d9f0d3" stroke="none" stroke-width="0" opacity="1"/>
		<rect x="119" y="181" width="86" height="106" fill="none" stroke="#5aae61" stroke-width="1.5" opacity="1"/>
		<line x1="119" y1="207" x2="205" y2="207" stroke="#5aae61" stroke-width="1"/>
	</g>
	<text x="125" y="199.6" fill="#000000" font-family="Trebuchet MS" font-size="14">CHAMPIONS</text>
	<text x="124" y="225.6" fill="#000000" font-family="Trebuchet MS" font-size="14">id</text>
	<line x1="124" y1="228" x2="137" y2="228" stroke="#000000" stroke-width="1"/>
	<text x="124" y="243.6" fill="#000000" font-family="Trebuchet MS" font-size="14">nom</text>
	<text x="124" y="261.6" fill="#000000" font-family="Trebuchet MS" font-size="14">annee</text>
	<text x="124" y="279.6" fill="#000000" font-family="Trebuchet MS" font-size="14">image</text>
</g>

<!-- Entity GENRE -->
<g>
	<g>
		<rect x="29" y="389" width="54" height="26" fill="#a6dba0" stroke="none" stroke-width="0" opacity="1"/>
		<rect x="29" y="415" width="54" height="44" fill="#d9f0d3" stroke="none" stroke-width="0" opacity="1"/>
		<rect x="29" y="389" width="54" height="70" fill="none" stroke="#5aae61" stroke-width="1.5" opacity="1"/>
		<line x1="29" y1="415" x2="83" y2="415" stroke="#5aae61" stroke-width="1"/>
	</g>
	<text x="34" y="407.6" fill="#000000" font-family="Trebuchet MS" font-size="14">GENRE</text>
	<text x="34" y="433.6" fill="#000000" font-family="Trebuchet MS" font-size="14">id</text>
	<line x1="34" y1="436" x2="47" y2="436" stroke="#000000" stroke-width="1"/>
	<text x="34" y="451.6" fill="#000000" font-family="Trebuchet MS" font-size="14">libelle</text>
</g>

<!-- Entity RESSOURCE -->
<g>
	<g>
		<rect x="120" y="389" width="84" height="26" fill="#a6dba0" stroke="none" stroke-width="0" opacity="1"/>
		<rect x="120" y="415" width="84" height="44" fill="#d9f0d3" stroke="none" stroke-width="0" opacity="1"/>
		<rect x="120" y="389" width="84" height="70" fill="none" stroke="#5aae61" stroke-width="1.5" opacity="1"/>
		<line x1="120" y1="415" x2="204" y2="415" stroke="#5aae61" stroke-width="1"/>
	</g>
	<text x="125" y="407.6" fill="#000000" font-family="Trebuchet MS" font-size="14">RESSOURCE</text>
	<text x="125" y="433.6" fill="#000000" font-family="Trebuchet MS" font-size="14">id</text>
	<line x1="125" y1="436" x2="138" y2="436" stroke="#000000" stroke-width="1"/>
	<text x="125" y="451.6" fill="#000000" font-family="Trebuchet MS" font-size="14">libelle</text>
</g>

<!-- Entity PORTEE -->
<g>
	<g>
		<rect x="236" y="389" width="62" height="26" fill="#a6dba0" stroke="none" stroke-width="0" opacity="1"/>
		<rect x="236" y="415" width="62" height="44" fill="#d9f0d3" stroke="none" stroke-width="0" opacity="1"/>
		<rect x="236" y="389" width="62" height="70" fill="none" stroke="#5aae61" stroke-width="1.5" opacity="1"/>
		<line x1="236" y1="415" x2="298" y2="415" stroke="#5aae61" stroke-width="1"/>
	</g>
	<text x="242" y="407.6" fill="#000000" font-family="Trebuchet MS" font-size="14">PORTEE</text>
	<text x="241" y="433.6" fill="#000000" font-family="Trebuchet MS" font-size="14">id</text>
	<line x1="241" y1="436" x2="254" y2="436" stroke="#000000" stroke-width="1"/>
	<text x="241" y="451.6" fill="#000000" font-family="Trebuchet MS" font-size="14">libelle</text>
</g>
</svg>